<mxfile host="app.diagrams.net" modified="2024-07-17T22:47:28.584Z" agent="Mozilla/5.0 (X11; Ubuntu; Linux x86_64; rv:128.0) Gecko/20100101 Firefox/128.0" etag="xts3BUFVj3yH7T5UnhTZ" version="24.7.1" type="device">
  <diagram name="Page-1" id="NB8L-7AYagEdO8EYFhaa">
    <mxGraphModel dx="1949" dy="1136" grid="1" gridSize="10" guides="1" tooltips="1" connect="1" arrows="1" fold="1" page="1" pageScale="1" pageWidth="850" pageHeight="1100" math="0" shadow="0">
      <root>
        <mxCell id="0" />
        <mxCell id="1" parent="0" />
        <mxCell id="gKtvUeXoNqOuS6UGChnT-1" value="&lt;font size=&quot;1&quot; face=&quot;Comic Sans MS&quot;&gt;&lt;b&gt;&lt;u style=&quot;font-size: 20px;&quot;&gt;System Design&lt;/u&gt;&lt;/b&gt;&lt;/font&gt;" style="text;html=1;align=center;verticalAlign=middle;whiteSpace=wrap;rounded=0;" vertex="1" parent="1">
          <mxGeometry x="310" y="40" width="230" height="40" as="geometry" />
        </mxCell>
        <mxCell id="gKtvUeXoNqOuS6UGChnT-10" value="" style="edgeStyle=orthogonalEdgeStyle;rounded=0;orthogonalLoop=1;jettySize=auto;html=1;" edge="1" parent="1" source="gKtvUeXoNqOuS6UGChnT-2" target="gKtvUeXoNqOuS6UGChnT-3">
          <mxGeometry relative="1" as="geometry" />
        </mxCell>
        <mxCell id="gKtvUeXoNqOuS6UGChnT-12" value="" style="edgeStyle=orthogonalEdgeStyle;rounded=0;orthogonalLoop=1;jettySize=auto;html=1;" edge="1" parent="1" source="gKtvUeXoNqOuS6UGChnT-2" target="gKtvUeXoNqOuS6UGChnT-9">
          <mxGeometry relative="1" as="geometry" />
        </mxCell>
        <mxCell id="gKtvUeXoNqOuS6UGChnT-14" style="edgeStyle=orthogonalEdgeStyle;rounded=0;orthogonalLoop=1;jettySize=auto;html=1;" edge="1" parent="1" source="gKtvUeXoNqOuS6UGChnT-2" target="gKtvUeXoNqOuS6UGChnT-4">
          <mxGeometry relative="1" as="geometry" />
        </mxCell>
        <mxCell id="gKtvUeXoNqOuS6UGChnT-22" style="edgeStyle=orthogonalEdgeStyle;rounded=0;orthogonalLoop=1;jettySize=auto;html=1;entryX=0.5;entryY=0;entryDx=0;entryDy=0;" edge="1" parent="1" source="gKtvUeXoNqOuS6UGChnT-2" target="gKtvUeXoNqOuS6UGChnT-17">
          <mxGeometry relative="1" as="geometry" />
        </mxCell>
        <mxCell id="gKtvUeXoNqOuS6UGChnT-28" style="edgeStyle=orthogonalEdgeStyle;rounded=0;orthogonalLoop=1;jettySize=auto;html=1;" edge="1" parent="1" source="gKtvUeXoNqOuS6UGChnT-2">
          <mxGeometry relative="1" as="geometry">
            <mxPoint x="430" y="589.9999999999998" as="targetPoint" />
          </mxGeometry>
        </mxCell>
        <mxCell id="gKtvUeXoNqOuS6UGChnT-2" value="&lt;font size=&quot;1&quot;&gt;&lt;b style=&quot;font-size: 18px;&quot;&gt;FastAPI application&lt;/b&gt;&lt;/font&gt;" style="rounded=1;whiteSpace=wrap;html=1;" vertex="1" parent="1">
          <mxGeometry x="280" y="240" width="250" height="90" as="geometry" />
        </mxCell>
        <mxCell id="gKtvUeXoNqOuS6UGChnT-11" value="" style="edgeStyle=orthogonalEdgeStyle;rounded=0;orthogonalLoop=1;jettySize=auto;html=1;" edge="1" parent="1" source="gKtvUeXoNqOuS6UGChnT-3" target="gKtvUeXoNqOuS6UGChnT-2">
          <mxGeometry relative="1" as="geometry" />
        </mxCell>
        <mxCell id="gKtvUeXoNqOuS6UGChnT-3" value="&lt;b style=&quot;font-size: 16px;&quot;&gt;SQLite &lt;font style=&quot;font-size: 16px;&quot;&gt;Database &lt;br&gt;youtube_videos.db&lt;/font&gt;&lt;/b&gt;" style="shape=cylinder3;whiteSpace=wrap;html=1;boundedLbl=1;backgroundOutline=1;size=15;" vertex="1" parent="1">
          <mxGeometry x="30" y="230" width="170" height="170" as="geometry" />
        </mxCell>
        <mxCell id="gKtvUeXoNqOuS6UGChnT-13" style="edgeStyle=orthogonalEdgeStyle;rounded=0;orthogonalLoop=1;jettySize=auto;html=1;entryX=1;entryY=0.5;entryDx=0;entryDy=0;" edge="1" parent="1" source="gKtvUeXoNqOuS6UGChnT-4" target="gKtvUeXoNqOuS6UGChnT-2">
          <mxGeometry relative="1" as="geometry" />
        </mxCell>
        <mxCell id="gKtvUeXoNqOuS6UGChnT-4" value="&lt;font style=&quot;font-size: 16px;&quot;&gt;&lt;b&gt;Redis&lt;/b&gt;&lt;/font&gt;" style="shape=cylinder3;whiteSpace=wrap;html=1;boundedLbl=1;backgroundOutline=1;size=15;" vertex="1" parent="1">
          <mxGeometry x="650" y="320" width="130" height="120" as="geometry" />
        </mxCell>
        <mxCell id="gKtvUeXoNqOuS6UGChnT-16" style="edgeStyle=orthogonalEdgeStyle;rounded=0;orthogonalLoop=1;jettySize=auto;html=1;entryX=1;entryY=0.5;entryDx=0;entryDy=0;" edge="1" parent="1" source="gKtvUeXoNqOuS6UGChnT-9" target="gKtvUeXoNqOuS6UGChnT-2">
          <mxGeometry relative="1" as="geometry" />
        </mxCell>
        <mxCell id="gKtvUeXoNqOuS6UGChnT-9" value="&lt;font style=&quot;font-size: 16px;&quot;&gt;&lt;b&gt;Object Store&lt;br&gt;&lt;/b&gt;&lt;/font&gt;" style="shape=internalStorage;whiteSpace=wrap;html=1;backgroundOutline=1;" vertex="1" parent="1">
          <mxGeometry x="640" y="170" width="160" height="110" as="geometry" />
        </mxCell>
        <mxCell id="gKtvUeXoNqOuS6UGChnT-21" style="edgeStyle=orthogonalEdgeStyle;rounded=0;orthogonalLoop=1;jettySize=auto;html=1;entryX=0.5;entryY=1;entryDx=0;entryDy=0;" edge="1" parent="1" source="gKtvUeXoNqOuS6UGChnT-17" target="gKtvUeXoNqOuS6UGChnT-2">
          <mxGeometry relative="1" as="geometry" />
        </mxCell>
        <mxCell id="gKtvUeXoNqOuS6UGChnT-17" value="&lt;font style=&quot;font-size: 16px;&quot;&gt;&lt;b&gt;Background&lt;br&gt;Asynchronous Events&lt;/b&gt;&lt;/font&gt;" style="shape=process;whiteSpace=wrap;html=1;backgroundOutline=1;" vertex="1" parent="1">
          <mxGeometry x="70" y="500" width="210" height="100" as="geometry" />
        </mxCell>
        <mxCell id="gKtvUeXoNqOuS6UGChnT-31" style="edgeStyle=orthogonalEdgeStyle;rounded=0;orthogonalLoop=1;jettySize=auto;html=1;entryX=0.5;entryY=1;entryDx=0;entryDy=0;" edge="1" parent="1" source="gKtvUeXoNqOuS6UGChnT-23" target="gKtvUeXoNqOuS6UGChnT-2">
          <mxGeometry relative="1" as="geometry" />
        </mxCell>
        <mxCell id="gKtvUeXoNqOuS6UGChnT-23" value="&lt;font style=&quot;font-size: 16px;&quot;&gt;&lt;b&gt;API endpoints exposed&lt;/b&gt;&lt;/font&gt;" style="ellipse;shape=cloud;whiteSpace=wrap;html=1;" vertex="1" parent="1">
          <mxGeometry x="300" y="590" width="260" height="190" as="geometry" />
        </mxCell>
      </root>
    </mxGraphModel>
  </diagram>
</mxfile>
